<mxfile host="Electron" agent="Mozilla/5.0 (Windows NT 10.0; Win64; x64) AppleWebKit/537.36 (KHTML, like Gecko) draw.io/24.7.8 Chrome/128.0.6613.36 Electron/32.0.1 Safari/537.36" version="24.7.8">
  <diagram name="sd" id="aq687RSopb6HTgE1FDYR">
    <mxGraphModel dx="882" dy="677" grid="1" gridSize="10" guides="1" tooltips="1" connect="1" arrows="1" fold="1" page="1" pageScale="1" pageWidth="1169" pageHeight="827" math="0" shadow="0">
      <root>
        <mxCell id="0" />
        <mxCell id="1" parent="0" />
        <mxCell id="0cQ1x41xjmS91qTvwNKJ-66" style="edgeStyle=none;shape=connector;rounded=0;orthogonalLoop=1;jettySize=auto;html=1;exitX=0.5;exitY=1;exitDx=0;exitDy=0;labelBackgroundColor=default;strokeColor=default;fontFamily=Helvetica;fontSize=11;fontColor=default;endArrow=none;endFill=0;" parent="1" source="0cQ1x41xjmS91qTvwNKJ-1" edge="1">
          <mxGeometry relative="1" as="geometry">
            <mxPoint x="560" y="160" as="targetPoint" />
          </mxGeometry>
        </mxCell>
        <mxCell id="0cQ1x41xjmS91qTvwNKJ-1" value="The Chase" style="rounded=0;whiteSpace=wrap;html=1;spacingLeft=4;spacingRight=4;" parent="1" vertex="1">
          <mxGeometry x="500" y="80" width="120" height="60" as="geometry" />
        </mxCell>
        <mxCell id="0cQ1x41xjmS91qTvwNKJ-8" style="rounded=0;orthogonalLoop=1;jettySize=auto;html=1;exitX=0.5;exitY=1;exitDx=0;exitDy=0;entryX=0.5;entryY=0;entryDx=0;entryDy=0;endArrow=none;endFill=0;" parent="1" source="0cQ1x41xjmS91qTvwNKJ-2" target="0cQ1x41xjmS91qTvwNKJ-4" edge="1">
          <mxGeometry relative="1" as="geometry" />
        </mxCell>
        <mxCell id="0cQ1x41xjmS91qTvwNKJ-62" style="edgeStyle=none;shape=connector;rounded=0;orthogonalLoop=1;jettySize=auto;html=1;exitX=0.5;exitY=0;exitDx=0;exitDy=0;labelBackgroundColor=default;strokeColor=default;fontFamily=Helvetica;fontSize=11;fontColor=default;endArrow=none;endFill=0;" parent="1" source="0cQ1x41xjmS91qTvwNKJ-2" edge="1">
          <mxGeometry relative="1" as="geometry">
            <mxPoint x="200" y="160" as="targetPoint" />
          </mxGeometry>
        </mxCell>
        <mxCell id="0cQ1x41xjmS91qTvwNKJ-2" value="Get answer to question 1" style="rounded=0;whiteSpace=wrap;html=1;spacingLeft=4;spacingRight=4;" parent="1" vertex="1">
          <mxGeometry x="160" y="180" width="80" height="60" as="geometry" />
        </mxCell>
        <mxCell id="0cQ1x41xjmS91qTvwNKJ-9" style="shape=connector;rounded=0;orthogonalLoop=1;jettySize=auto;html=1;exitX=0.5;exitY=1;exitDx=0;exitDy=0;entryX=0.5;entryY=0;entryDx=0;entryDy=0;labelBackgroundColor=default;strokeColor=default;fontFamily=Helvetica;fontSize=11;fontColor=default;endArrow=none;endFill=0;" parent="1" source="0cQ1x41xjmS91qTvwNKJ-4" target="0cQ1x41xjmS91qTvwNKJ-5" edge="1">
          <mxGeometry relative="1" as="geometry" />
        </mxCell>
        <mxCell id="0cQ1x41xjmS91qTvwNKJ-10" style="edgeStyle=none;shape=connector;rounded=0;orthogonalLoop=1;jettySize=auto;html=1;exitX=0.5;exitY=1;exitDx=0;exitDy=0;entryX=0.5;entryY=0;entryDx=0;entryDy=0;labelBackgroundColor=default;strokeColor=default;fontFamily=Helvetica;fontSize=11;fontColor=default;endArrow=none;endFill=0;" parent="1" source="0cQ1x41xjmS91qTvwNKJ-4" target="0cQ1x41xjmS91qTvwNKJ-7" edge="1">
          <mxGeometry relative="1" as="geometry" />
        </mxCell>
        <mxCell id="0cQ1x41xjmS91qTvwNKJ-4" value="Is&lt;br&gt;answer 1&lt;br&gt;correct?" style="shape=hexagon;perimeter=hexagonPerimeter2;whiteSpace=wrap;html=1;fixedSize=1;spacingLeft=8;spacingRight=8;" parent="1" vertex="1">
          <mxGeometry x="160" y="260" width="80" height="60" as="geometry" />
        </mxCell>
        <mxCell id="0cQ1x41xjmS91qTvwNKJ-11" style="edgeStyle=none;shape=connector;rounded=0;orthogonalLoop=1;jettySize=auto;html=1;exitX=0.5;exitY=1;exitDx=0;exitDy=0;entryX=0.5;entryY=0;entryDx=0;entryDy=0;labelBackgroundColor=default;strokeColor=default;fontFamily=Helvetica;fontSize=11;fontColor=default;endArrow=none;endFill=0;" parent="1" source="0cQ1x41xjmS91qTvwNKJ-5" target="0cQ1x41xjmS91qTvwNKJ-6" edge="1">
          <mxGeometry relative="1" as="geometry" />
        </mxCell>
        <mxCell id="0cQ1x41xjmS91qTvwNKJ-5" value="Add 1 to score" style="rounded=0;whiteSpace=wrap;html=1;spacingLeft=4;spacingRight=4;" parent="1" vertex="1">
          <mxGeometry x="110" y="360" width="70" height="60" as="geometry" />
        </mxCell>
        <mxCell id="0cQ1x41xjmS91qTvwNKJ-6" value="Display &quot;Correct&quot;" style="rounded=0;whiteSpace=wrap;html=1;spacingLeft=4;spacingRight=4;" parent="1" vertex="1">
          <mxGeometry x="110" y="440" width="70" height="60" as="geometry" />
        </mxCell>
        <mxCell id="0cQ1x41xjmS91qTvwNKJ-7" value="Display correct answer" style="rounded=0;whiteSpace=wrap;html=1;spacingLeft=4;spacingRight=4;" parent="1" vertex="1">
          <mxGeometry x="220" y="360" width="70" height="60" as="geometry" />
        </mxCell>
        <mxCell id="0cQ1x41xjmS91qTvwNKJ-21" style="rounded=0;orthogonalLoop=1;jettySize=auto;html=1;exitX=0.5;exitY=1;exitDx=0;exitDy=0;entryX=0.5;entryY=0;entryDx=0;entryDy=0;endArrow=none;endFill=0;" parent="1" source="0cQ1x41xjmS91qTvwNKJ-22" target="0cQ1x41xjmS91qTvwNKJ-25" edge="1">
          <mxGeometry relative="1" as="geometry" />
        </mxCell>
        <mxCell id="0cQ1x41xjmS91qTvwNKJ-63" style="edgeStyle=none;shape=connector;rounded=0;orthogonalLoop=1;jettySize=auto;html=1;exitX=0.5;exitY=0;exitDx=0;exitDy=0;labelBackgroundColor=default;strokeColor=default;fontFamily=Helvetica;fontSize=11;fontColor=default;endArrow=none;endFill=0;" parent="1" source="0cQ1x41xjmS91qTvwNKJ-22" edge="1">
          <mxGeometry relative="1" as="geometry">
            <mxPoint x="420" y="160" as="targetPoint" />
          </mxGeometry>
        </mxCell>
        <mxCell id="0cQ1x41xjmS91qTvwNKJ-22" value="Get answer to question 2" style="rounded=0;whiteSpace=wrap;html=1;spacingLeft=4;spacingRight=4;" parent="1" vertex="1">
          <mxGeometry x="380" y="180" width="80" height="60" as="geometry" />
        </mxCell>
        <mxCell id="0cQ1x41xjmS91qTvwNKJ-23" style="shape=connector;rounded=0;orthogonalLoop=1;jettySize=auto;html=1;exitX=0.5;exitY=1;exitDx=0;exitDy=0;entryX=0.5;entryY=0;entryDx=0;entryDy=0;labelBackgroundColor=default;strokeColor=default;fontFamily=Helvetica;fontSize=11;fontColor=default;endArrow=none;endFill=0;" parent="1" source="0cQ1x41xjmS91qTvwNKJ-25" target="0cQ1x41xjmS91qTvwNKJ-27" edge="1">
          <mxGeometry relative="1" as="geometry" />
        </mxCell>
        <mxCell id="0cQ1x41xjmS91qTvwNKJ-24" style="edgeStyle=none;shape=connector;rounded=0;orthogonalLoop=1;jettySize=auto;html=1;exitX=0.5;exitY=1;exitDx=0;exitDy=0;entryX=0.5;entryY=0;entryDx=0;entryDy=0;labelBackgroundColor=default;strokeColor=default;fontFamily=Helvetica;fontSize=11;fontColor=default;endArrow=none;endFill=0;" parent="1" source="0cQ1x41xjmS91qTvwNKJ-25" target="0cQ1x41xjmS91qTvwNKJ-29" edge="1">
          <mxGeometry relative="1" as="geometry" />
        </mxCell>
        <mxCell id="0cQ1x41xjmS91qTvwNKJ-25" value="Is&lt;br&gt;answer 2&lt;br&gt;correct?" style="shape=hexagon;perimeter=hexagonPerimeter2;whiteSpace=wrap;html=1;fixedSize=1;spacingLeft=8;spacingRight=8;" parent="1" vertex="1">
          <mxGeometry x="380" y="260" width="80" height="60" as="geometry" />
        </mxCell>
        <mxCell id="0cQ1x41xjmS91qTvwNKJ-26" style="edgeStyle=none;shape=connector;rounded=0;orthogonalLoop=1;jettySize=auto;html=1;exitX=0.5;exitY=1;exitDx=0;exitDy=0;entryX=0.5;entryY=0;entryDx=0;entryDy=0;labelBackgroundColor=default;strokeColor=default;fontFamily=Helvetica;fontSize=11;fontColor=default;endArrow=none;endFill=0;" parent="1" source="0cQ1x41xjmS91qTvwNKJ-27" target="0cQ1x41xjmS91qTvwNKJ-28" edge="1">
          <mxGeometry relative="1" as="geometry" />
        </mxCell>
        <mxCell id="0cQ1x41xjmS91qTvwNKJ-27" value="Add 1 to score" style="rounded=0;whiteSpace=wrap;html=1;spacingLeft=4;spacingRight=4;" parent="1" vertex="1">
          <mxGeometry x="330" y="360" width="70" height="60" as="geometry" />
        </mxCell>
        <mxCell id="0cQ1x41xjmS91qTvwNKJ-28" value="Display &quot;Correct&quot;" style="rounded=0;whiteSpace=wrap;html=1;spacingLeft=4;spacingRight=4;" parent="1" vertex="1">
          <mxGeometry x="330" y="440" width="70" height="60" as="geometry" />
        </mxCell>
        <mxCell id="0cQ1x41xjmS91qTvwNKJ-29" value="Display correct answer" style="rounded=0;whiteSpace=wrap;html=1;spacingLeft=4;spacingRight=4;" parent="1" vertex="1">
          <mxGeometry x="440" y="360" width="70" height="60" as="geometry" />
        </mxCell>
        <mxCell id="0cQ1x41xjmS91qTvwNKJ-30" value="Yes" style="text;html=1;strokeColor=none;fillColor=none;align=right;verticalAlign=middle;whiteSpace=wrap;rounded=0;fontSize=11;fontFamily=Helvetica;fontColor=default;" parent="1" vertex="1">
          <mxGeometry x="130" y="330" width="30" height="30" as="geometry" />
        </mxCell>
        <mxCell id="0cQ1x41xjmS91qTvwNKJ-31" value="No" style="text;html=1;strokeColor=none;fillColor=none;align=left;verticalAlign=middle;whiteSpace=wrap;rounded=0;fontSize=11;fontFamily=Helvetica;fontColor=default;" parent="1" vertex="1">
          <mxGeometry x="240" y="330" width="30" height="30" as="geometry" />
        </mxCell>
        <mxCell id="0cQ1x41xjmS91qTvwNKJ-32" value="Yes" style="text;html=1;strokeColor=none;fillColor=none;align=right;verticalAlign=middle;whiteSpace=wrap;rounded=0;fontSize=11;fontFamily=Helvetica;fontColor=default;" parent="1" vertex="1">
          <mxGeometry x="350" y="330" width="30" height="30" as="geometry" />
        </mxCell>
        <mxCell id="0cQ1x41xjmS91qTvwNKJ-34" value="No" style="text;html=1;strokeColor=none;fillColor=none;align=left;verticalAlign=middle;whiteSpace=wrap;rounded=0;fontSize=11;fontFamily=Helvetica;fontColor=default;" parent="1" vertex="1">
          <mxGeometry x="460" y="330" width="30" height="30" as="geometry" />
        </mxCell>
        <mxCell id="0cQ1x41xjmS91qTvwNKJ-35" style="rounded=0;orthogonalLoop=1;jettySize=auto;html=1;exitX=0.5;exitY=1;exitDx=0;exitDy=0;entryX=0.5;entryY=0;entryDx=0;entryDy=0;endArrow=none;endFill=0;" parent="1" source="0cQ1x41xjmS91qTvwNKJ-36" target="0cQ1x41xjmS91qTvwNKJ-39" edge="1">
          <mxGeometry relative="1" as="geometry" />
        </mxCell>
        <mxCell id="0cQ1x41xjmS91qTvwNKJ-64" style="edgeStyle=none;shape=connector;rounded=0;orthogonalLoop=1;jettySize=auto;html=1;exitX=0.5;exitY=0;exitDx=0;exitDy=0;labelBackgroundColor=default;strokeColor=default;fontFamily=Helvetica;fontSize=11;fontColor=default;endArrow=none;endFill=0;" parent="1" source="0cQ1x41xjmS91qTvwNKJ-36" edge="1">
          <mxGeometry relative="1" as="geometry">
            <mxPoint x="640" y="160" as="targetPoint" />
          </mxGeometry>
        </mxCell>
        <mxCell id="0cQ1x41xjmS91qTvwNKJ-36" value="Get answer to question 3" style="rounded=0;whiteSpace=wrap;html=1;spacingLeft=4;spacingRight=4;" parent="1" vertex="1">
          <mxGeometry x="600" y="180" width="80" height="60" as="geometry" />
        </mxCell>
        <mxCell id="0cQ1x41xjmS91qTvwNKJ-37" style="shape=connector;rounded=0;orthogonalLoop=1;jettySize=auto;html=1;exitX=0.5;exitY=1;exitDx=0;exitDy=0;entryX=0.5;entryY=0;entryDx=0;entryDy=0;labelBackgroundColor=default;strokeColor=default;fontFamily=Helvetica;fontSize=11;fontColor=default;endArrow=none;endFill=0;" parent="1" source="0cQ1x41xjmS91qTvwNKJ-39" target="0cQ1x41xjmS91qTvwNKJ-41" edge="1">
          <mxGeometry relative="1" as="geometry" />
        </mxCell>
        <mxCell id="0cQ1x41xjmS91qTvwNKJ-38" style="edgeStyle=none;shape=connector;rounded=0;orthogonalLoop=1;jettySize=auto;html=1;exitX=0.5;exitY=1;exitDx=0;exitDy=0;entryX=0.5;entryY=0;entryDx=0;entryDy=0;labelBackgroundColor=default;strokeColor=default;fontFamily=Helvetica;fontSize=11;fontColor=default;endArrow=none;endFill=0;" parent="1" source="0cQ1x41xjmS91qTvwNKJ-39" target="0cQ1x41xjmS91qTvwNKJ-43" edge="1">
          <mxGeometry relative="1" as="geometry" />
        </mxCell>
        <mxCell id="0cQ1x41xjmS91qTvwNKJ-39" value="Is&lt;br&gt;answer 3&lt;br&gt;correct?" style="shape=hexagon;perimeter=hexagonPerimeter2;whiteSpace=wrap;html=1;fixedSize=1;spacingLeft=8;spacingRight=8;" parent="1" vertex="1">
          <mxGeometry x="600" y="260" width="80" height="60" as="geometry" />
        </mxCell>
        <mxCell id="0cQ1x41xjmS91qTvwNKJ-40" style="edgeStyle=none;shape=connector;rounded=0;orthogonalLoop=1;jettySize=auto;html=1;exitX=0.5;exitY=1;exitDx=0;exitDy=0;entryX=0.5;entryY=0;entryDx=0;entryDy=0;labelBackgroundColor=default;strokeColor=default;fontFamily=Helvetica;fontSize=11;fontColor=default;endArrow=none;endFill=0;" parent="1" source="0cQ1x41xjmS91qTvwNKJ-41" target="0cQ1x41xjmS91qTvwNKJ-42" edge="1">
          <mxGeometry relative="1" as="geometry" />
        </mxCell>
        <mxCell id="0cQ1x41xjmS91qTvwNKJ-41" value="Add 1 to score" style="rounded=0;whiteSpace=wrap;html=1;spacingLeft=4;spacingRight=4;" parent="1" vertex="1">
          <mxGeometry x="550" y="360" width="70" height="60" as="geometry" />
        </mxCell>
        <mxCell id="0cQ1x41xjmS91qTvwNKJ-42" value="Display &quot;Correct&quot;" style="rounded=0;whiteSpace=wrap;html=1;spacingLeft=4;spacingRight=4;" parent="1" vertex="1">
          <mxGeometry x="550" y="440" width="70" height="60" as="geometry" />
        </mxCell>
        <mxCell id="0cQ1x41xjmS91qTvwNKJ-43" value="Display correct answer" style="rounded=0;whiteSpace=wrap;html=1;spacingLeft=4;spacingRight=4;" parent="1" vertex="1">
          <mxGeometry x="660" y="360" width="70" height="60" as="geometry" />
        </mxCell>
        <mxCell id="0cQ1x41xjmS91qTvwNKJ-44" value="Yes" style="text;html=1;strokeColor=none;fillColor=none;align=right;verticalAlign=middle;whiteSpace=wrap;rounded=0;fontSize=11;fontFamily=Helvetica;fontColor=default;" parent="1" vertex="1">
          <mxGeometry x="570" y="330" width="30" height="30" as="geometry" />
        </mxCell>
        <mxCell id="0cQ1x41xjmS91qTvwNKJ-45" value="No" style="text;html=1;strokeColor=none;fillColor=none;align=left;verticalAlign=middle;whiteSpace=wrap;rounded=0;fontSize=11;fontFamily=Helvetica;fontColor=default;" parent="1" vertex="1">
          <mxGeometry x="680" y="330" width="30" height="30" as="geometry" />
        </mxCell>
        <mxCell id="0cQ1x41xjmS91qTvwNKJ-65" style="edgeStyle=none;shape=connector;rounded=0;orthogonalLoop=1;jettySize=auto;html=1;exitX=0.5;exitY=0;exitDx=0;exitDy=0;labelBackgroundColor=default;strokeColor=default;fontFamily=Helvetica;fontSize=11;fontColor=default;endArrow=none;endFill=0;" parent="1" source="0cQ1x41xjmS91qTvwNKJ-46" edge="1">
          <mxGeometry relative="1" as="geometry">
            <mxPoint x="860" y="160" as="targetPoint" />
          </mxGeometry>
        </mxCell>
        <mxCell id="0cQ1x41xjmS91qTvwNKJ-46" value="Is&lt;br&gt;score more than 2?" style="shape=hexagon;perimeter=hexagonPerimeter2;whiteSpace=wrap;html=1;fixedSize=1;spacingLeft=6;spacingRight=6;" parent="1" vertex="1">
          <mxGeometry x="820" y="180" width="80" height="60" as="geometry" />
        </mxCell>
        <mxCell id="0cQ1x41xjmS91qTvwNKJ-47" style="shape=connector;rounded=0;orthogonalLoop=1;jettySize=auto;html=1;entryX=0.5;entryY=0;entryDx=0;entryDy=0;labelBackgroundColor=default;strokeColor=default;fontFamily=Helvetica;fontSize=11;fontColor=default;endArrow=none;endFill=0;exitX=0.5;exitY=1;exitDx=0;exitDy=0;" parent="1" source="0cQ1x41xjmS91qTvwNKJ-46" target="0cQ1x41xjmS91qTvwNKJ-50" edge="1">
          <mxGeometry relative="1" as="geometry">
            <mxPoint x="860" y="240" as="sourcePoint" />
          </mxGeometry>
        </mxCell>
        <mxCell id="0cQ1x41xjmS91qTvwNKJ-48" style="edgeStyle=none;shape=connector;rounded=0;orthogonalLoop=1;jettySize=auto;html=1;labelBackgroundColor=default;strokeColor=default;fontFamily=Helvetica;fontSize=11;fontColor=default;endArrow=none;endFill=0;exitX=0.5;exitY=1;exitDx=0;exitDy=0;entryX=0.5;entryY=0;entryDx=0;entryDy=0;" parent="1" source="0cQ1x41xjmS91qTvwNKJ-46" target="0cQ1x41xjmS91qTvwNKJ-54" edge="1">
          <mxGeometry relative="1" as="geometry">
            <mxPoint x="860" y="260" as="sourcePoint" />
            <mxPoint x="880" y="290" as="targetPoint" />
          </mxGeometry>
        </mxCell>
        <mxCell id="0cQ1x41xjmS91qTvwNKJ-50" value="Display &quot;Genius!&quot;" style="rounded=0;whiteSpace=wrap;html=1;spacingLeft=4;spacingRight=4;" parent="1" vertex="1">
          <mxGeometry x="770" y="280" width="70" height="60" as="geometry" />
        </mxCell>
        <mxCell id="0cQ1x41xjmS91qTvwNKJ-52" value="Yes" style="text;html=1;strokeColor=none;fillColor=none;align=right;verticalAlign=middle;whiteSpace=wrap;rounded=0;fontSize=11;fontFamily=Helvetica;fontColor=default;" parent="1" vertex="1">
          <mxGeometry x="790" y="250" width="30" height="30" as="geometry" />
        </mxCell>
        <mxCell id="0cQ1x41xjmS91qTvwNKJ-53" value="No" style="text;html=1;strokeColor=none;fillColor=none;align=left;verticalAlign=middle;whiteSpace=wrap;rounded=0;fontSize=11;fontFamily=Helvetica;fontColor=default;" parent="1" vertex="1">
          <mxGeometry x="900" y="250" width="30" height="30" as="geometry" />
        </mxCell>
        <mxCell id="0cQ1x41xjmS91qTvwNKJ-54" value="Is&lt;br&gt;score less than 1?" style="shape=hexagon;perimeter=hexagonPerimeter2;whiteSpace=wrap;html=1;fixedSize=1;spacingLeft=6;spacingRight=6;" parent="1" vertex="1">
          <mxGeometry x="875" y="280" width="80" height="60" as="geometry" />
        </mxCell>
        <mxCell id="0cQ1x41xjmS91qTvwNKJ-55" style="shape=connector;rounded=0;orthogonalLoop=1;jettySize=auto;html=1;entryX=0.5;entryY=0;entryDx=0;entryDy=0;labelBackgroundColor=default;strokeColor=default;fontFamily=Helvetica;fontSize=11;fontColor=default;endArrow=none;endFill=0;exitX=0.5;exitY=1;exitDx=0;exitDy=0;" parent="1" source="0cQ1x41xjmS91qTvwNKJ-54" target="0cQ1x41xjmS91qTvwNKJ-57" edge="1">
          <mxGeometry relative="1" as="geometry">
            <mxPoint x="915" y="340" as="sourcePoint" />
          </mxGeometry>
        </mxCell>
        <mxCell id="0cQ1x41xjmS91qTvwNKJ-56" style="edgeStyle=none;shape=connector;rounded=0;orthogonalLoop=1;jettySize=auto;html=1;entryX=0.5;entryY=0;entryDx=0;entryDy=0;labelBackgroundColor=default;strokeColor=default;fontFamily=Helvetica;fontSize=11;fontColor=default;endArrow=none;endFill=0;exitX=0.5;exitY=1;exitDx=0;exitDy=0;" parent="1" source="0cQ1x41xjmS91qTvwNKJ-54" target="0cQ1x41xjmS91qTvwNKJ-58" edge="1">
          <mxGeometry relative="1" as="geometry">
            <mxPoint x="980" y="340" as="sourcePoint" />
          </mxGeometry>
        </mxCell>
        <mxCell id="0cQ1x41xjmS91qTvwNKJ-57" value="Display &quot;Oh dear!&quot;" style="rounded=0;whiteSpace=wrap;html=1;spacingLeft=4;spacingRight=4;" parent="1" vertex="1">
          <mxGeometry x="825" y="380" width="70" height="60" as="geometry" />
        </mxCell>
        <mxCell id="0cQ1x41xjmS91qTvwNKJ-58" value="Display &quot;Good effort!&quot;" style="rounded=0;whiteSpace=wrap;html=1;spacingLeft=4;spacingRight=4;" parent="1" vertex="1">
          <mxGeometry x="935" y="380" width="70" height="60" as="geometry" />
        </mxCell>
        <mxCell id="0cQ1x41xjmS91qTvwNKJ-59" value="Yes" style="text;html=1;strokeColor=none;fillColor=none;align=right;verticalAlign=middle;whiteSpace=wrap;rounded=0;fontSize=11;fontFamily=Helvetica;fontColor=default;" parent="1" vertex="1">
          <mxGeometry x="845" y="350" width="30" height="30" as="geometry" />
        </mxCell>
        <mxCell id="0cQ1x41xjmS91qTvwNKJ-60" value="No" style="text;html=1;strokeColor=none;fillColor=none;align=left;verticalAlign=middle;whiteSpace=wrap;rounded=0;fontSize=11;fontFamily=Helvetica;fontColor=default;" parent="1" vertex="1">
          <mxGeometry x="955" y="350" width="30" height="30" as="geometry" />
        </mxCell>
        <mxCell id="0cQ1x41xjmS91qTvwNKJ-61" value="" style="endArrow=none;html=1;rounded=0;labelBackgroundColor=default;strokeColor=default;fontFamily=Helvetica;fontSize=11;fontColor=default;shape=connector;" parent="1" edge="1">
          <mxGeometry width="50" height="50" relative="1" as="geometry">
            <mxPoint x="80" y="160" as="sourcePoint" />
            <mxPoint x="860" y="160" as="targetPoint" />
          </mxGeometry>
        </mxCell>
        <mxCell id="E6WHr_Vs9KMxt90ATPTh-3" style="rounded=0;orthogonalLoop=1;jettySize=auto;html=1;exitX=0.5;exitY=0;exitDx=0;exitDy=0;endArrow=none;endFill=0;" edge="1" parent="1" source="E6WHr_Vs9KMxt90ATPTh-2">
          <mxGeometry relative="1" as="geometry">
            <mxPoint x="80" y="160" as="targetPoint" />
          </mxGeometry>
        </mxCell>
        <mxCell id="E6WHr_Vs9KMxt90ATPTh-2" value="Initialise variables" style="rounded=0;whiteSpace=wrap;html=1;" vertex="1" parent="1">
          <mxGeometry x="40" y="180" width="80" height="60" as="geometry" />
        </mxCell>
      </root>
    </mxGraphModel>
  </diagram>
</mxfile>
